<svg xmlns="http://www.w3.org/2000/svg" xml:space="preserve" viewBox="0 0 16 16" width="16" height="16" version="1.0"><g fill="currentColor"><path d="M10.801 3.45c-1.064 0-3.615.031-5.231.051L7.09 1.98 6.04 1 2.891 4.22 6.04 7.37l1.05-.98-1.536-1.489a582 582 0 0 1 5.247-.051c.769 0 .91.63.91.91v3.15h1.398V5.76c0-.91-.63-2.31-2.308-2.31zM9.96 8.63l-1.05.98 1.537 1.488c-1.615.022-4.18.051-5.247.051-.771 0-.91-.629-.91-.909V7.09H2.891v3.15c0 .909.63 2.31 2.31 2.31 1.063 0 3.616-.03 5.23-.051L8.91 14.02l1.05.98 3.149-3.22L9.96 8.63z"/></g></svg>